# xmcd CD database file
#
# Track frame offsets:
#	151
#	31264
#	53153
#	83512
#	112505
#	139832
#	178614
#	205495
#	219981
#	254341
#	280840
#	308525
#
# Disc length: 4459 seconds
#
# Revision: 0
# Processed by: cddbd v1.5.1PL0 Copyright (c) Steve Scherf et al.
# Submitted via: CDex 1.51
#
DISCID=9a11690c
DTITLE=Oscar McMillan - Heightened Sensitivity Part II
DYEAR=1999
DGENRE=Jazz
TTITLE0=Moving Cities
TTITLE1=Cascade
TTITLE2=Dubious Meaning
TTITLE3=Latin Edition
TTITLE4=Wild and Peaceful
TTITLE5=Dance
TTITLE6=Carnaval De Sao Vincente
TTITLE7=Severance
TTITLE8=Lonesome
TTITLE9=Big Ben
TTITLE10=Nublado
TTITLE11=It's Gonna Be Alright
EXTD=YEAR: 1999
EXTT0=
EXTT1=
EXTT2=
EXTT3=
EXTT4=
EXTT5=
EXTT6=
EXTT7=
EXTT8=
EXTT9=
EXTT10=
EXTT11=
PLAYORDER=
